<svg width="60" height="60" viewBox="0 0 60 60" fill="none" xmlns="http://www.w3.org/2000/svg">
<path d="M36.25 10H23.75L17.5 17.5H10C8.67392 17.5 7.40215 18.0268 6.46447 18.9645C5.52678 19.9021 5 21.1739 5 22.5V45C5 46.3261 5.52678 47.5979 6.46447 48.5355C7.40215 49.4732 8.67392 50 10 50H50C51.3261 50 52.5979 49.4732 53.5355 48.5355C54.4732 47.5979 55 46.3261 55 45V22.5C55 21.1739 54.4732 19.9021 53.5355 18.9645C52.5979 18.0268 51.3261 17.5 50 17.5H42.5L36.25 10Z" stroke="#9A845C" stroke-width="3" stroke-linecap="round" stroke-linejoin="round"/>
<path d="M30 40C34.1421 40 37.5 36.6421 37.5 32.5C37.5 28.3579 34.1421 25 30 25C25.8579 25 22.5 28.3579 22.5 32.5C22.5 36.6421 25.8579 40 30 40Z" stroke="#9A845C" stroke-width="3" stroke-linecap="round" stroke-linejoin="round"/>
</svg>
