<svg width="60" height="60" viewBox="0 0 60 60" fill="none" xmlns="http://www.w3.org/2000/svg">
<path d="M37.5 52.5V32.5C37.5 31.837 37.2366 31.2011 36.7678 30.7322C36.2989 30.2634 35.663 30 35 30H25C24.337 30 23.7011 30.2634 23.2322 30.7322C22.7634 31.2011 22.5 31.837 22.5 32.5V52.5M7.5 24.9999C7.49983 24.2726 7.65833 23.554 7.96447 22.8942C8.2706 22.2344 8.71699 21.6494 9.2725 21.1799L26.7725 6.18242C27.675 5.41969 28.8184 5.00122 30 5.00122C31.1816 5.00122 32.325 5.41969 33.2275 6.18242L50.7275 21.1799C51.283 21.6494 51.7294 22.2344 52.0355 22.8942C52.3417 23.554 52.5002 24.2726 52.5 24.9999V47.4999C52.5 48.826 51.9732 50.0978 51.0355 51.0355C50.0979 51.9731 48.8261 52.4999 47.5 52.4999H12.5C11.1739 52.4999 9.90215 51.9731 8.96447 51.0355C8.02678 50.0978 7.5 48.826 7.5 47.4999V24.9999Z" stroke="#9A845C" stroke-width="3" stroke-linecap="round" stroke-linejoin="round"/>
</svg>
