<svg width="60" height="60" viewBox="0 0 60 60" fill="none" xmlns="http://www.w3.org/2000/svg">
<path d="M33.75 17.5C34.4404 17.5 35 16.9404 35 16.25C35 15.5596 34.4404 15 33.75 15C33.0596 15 32.5 15.5596 32.5 16.25C32.5 16.9404 33.0596 17.5 33.75 17.5Z" fill="#9A845C"/>
<path d="M43.75 27.5C44.4404 27.5 45 26.9404 45 26.25C45 25.5596 44.4404 25 43.75 25C43.0596 25 42.5 25.5596 42.5 26.25C42.5 26.9404 43.0596 27.5 43.75 27.5Z" fill="#9A845C"/>
<path d="M21.25 20C21.9404 20 22.5 19.4404 22.5 18.75C22.5 18.0596 21.9404 17.5 21.25 17.5C20.5596 17.5 20 18.0596 20 18.75C20 19.4404 20.5596 20 21.25 20Z" fill="#9A845C"/>
<path d="M16.25 32.5C16.9404 32.5 17.5 31.9404 17.5 31.25C17.5 30.5596 16.9404 30 16.25 30C15.5596 30 15 30.5596 15 31.25C15 31.9404 15.5596 32.5 16.25 32.5Z" fill="#9A845C"/>
<path d="M33.75 17.5C34.4404 17.5 35 16.9404 35 16.25C35 15.5596 34.4404 15 33.75 15C33.0596 15 32.5 15.5596 32.5 16.25C32.5 16.9404 33.0596 17.5 33.75 17.5Z" stroke="#9A845C" stroke-width="3" stroke-linecap="round" stroke-linejoin="round"/>
<path d="M43.75 27.5C44.4404 27.5 45 26.9404 45 26.25C45 25.5596 44.4404 25 43.75 25C43.0596 25 42.5 25.5596 42.5 26.25C42.5 26.9404 43.0596 27.5 43.75 27.5Z" stroke="#9A845C" stroke-width="3" stroke-linecap="round" stroke-linejoin="round"/>
<path d="M21.25 20C21.9404 20 22.5 19.4404 22.5 18.75C22.5 18.0596 21.9404 17.5 21.25 17.5C20.5596 17.5 20 18.0596 20 18.75C20 19.4404 20.5596 20 21.25 20Z" stroke="#9A845C" stroke-width="3" stroke-linecap="round" stroke-linejoin="round"/>
<path d="M16.25 32.5C16.9404 32.5 17.5 31.9404 17.5 31.25C17.5 30.5596 16.9404 30 16.25 30C15.5596 30 15 30.5596 15 31.25C15 31.9404 15.5596 32.5 16.25 32.5Z" stroke="#9A845C" stroke-width="3" stroke-linecap="round" stroke-linejoin="round"/>
<path d="M30 5C16.25 5 5 16.25 5 30C5 43.75 16.25 55 30 55C32.315 55 34.12 53.135 34.12 50.78C34.12 49.6875 33.67 48.6925 33.0275 47.9675C32.3025 47.245 31.9325 46.3375 31.9325 45.155C31.923 44.6048 32.0244 44.0583 32.2306 43.5481C32.4368 43.0379 32.7436 42.5744 33.1328 42.1853C33.5219 41.7961 33.9854 41.4893 34.4956 41.2831C35.0058 41.0769 35.5523 40.9755 36.1025 40.985H41.0925C48.72 40.985 54.98 34.7275 54.98 27.1C54.9125 15.03 43.6525 5 30 5Z" stroke="#9A845C" stroke-width="3" stroke-linecap="round" stroke-linejoin="round"/>
</svg>
