<svg width="60" height="60" viewBox="0 0 60 60" fill="none" xmlns="http://www.w3.org/2000/svg">
<path d="M7.5 17.5V12.5C7.5 11.1739 8.02678 9.90215 8.96447 8.96447C9.90215 8.02678 11.1739 7.5 12.5 7.5H17.5M42.5 7.5H47.5C48.8261 7.5 50.0979 8.02678 51.0355 8.96447C51.9732 9.90215 52.5 11.1739 52.5 12.5V17.5M52.5 42.5V47.5C52.5 48.8261 51.9732 50.0979 51.0355 51.0355C50.0979 51.9732 48.8261 52.5 47.5 52.5H42.5M17.5 52.5H12.5C11.1739 52.5 9.90215 51.9732 8.96447 51.0355C8.02678 50.0979 7.5 48.8261 7.5 47.5V42.5M32.5 30C32.5 31.3807 31.3807 32.5 30 32.5C28.6193 32.5 27.5 31.3807 27.5 30C27.5 28.6193 28.6193 27.5 30 27.5C31.3807 27.5 32.5 28.6193 32.5 30ZM47.36 30.8251C47.5468 30.2909 47.5468 29.7092 47.36 29.1751C45.9525 25.7261 43.5496 22.7746 40.4577 20.697C37.3658 18.6193 33.7251 17.5098 30 17.5098C26.275 17.5098 22.6343 18.6193 19.5424 20.697C16.4505 22.7746 14.0476 25.7261 12.64 29.1751C12.4533 29.7092 12.4533 30.2909 12.64 30.8251C14.0476 34.274 16.4505 37.2255 19.5424 39.3032C22.6343 41.3808 26.275 42.4904 30 42.4904C33.7251 42.4904 37.3658 41.3808 40.4577 39.3032C43.5496 37.2255 45.9525 34.274 47.36 30.8251Z" stroke="#9A845C" stroke-width="3" stroke-linecap="round" stroke-linejoin="round"/>
</svg>
