<svg width="60" height="60" viewBox="0 0 60 60" fill="none" xmlns="http://www.w3.org/2000/svg">
<path d="M40 32.5001L53.0575 41.2051C53.2457 41.3303 53.4644 41.4022 53.6903 41.413C53.9161 41.4238 54.1407 41.3731 54.34 41.2664C54.5393 41.1597 54.706 41.0009 54.8222 40.8069C54.9384 40.613 54.9999 40.3912 55 40.1651V19.6751C55.0001 19.4551 54.9421 19.239 54.8319 19.0487C54.7218 18.8583 54.5634 18.7004 54.3727 18.5908C54.1819 18.4812 53.9657 18.4239 53.7458 18.4247C53.5258 18.4254 53.31 18.4842 53.12 18.5951L40 26.2501M10 15H35C37.7614 15 40 17.2386 40 20V40C40 42.7614 37.7614 45 35 45H10C7.23858 45 5 42.7614 5 40V20C5 17.2386 7.23858 15 10 15Z" stroke="#9A845C" stroke-width="3" stroke-linecap="round" stroke-linejoin="round"/>
</svg>
