<svg width="24" height="24" viewBox="0 0 24 24" fill="none" xmlns="http://www.w3.org/2000/svg">
<g clip-path="url(#clip0_40000012_149)">
<g clip-path="url(#clip1_40000012_149)">
<path fill-rule="evenodd" clip-rule="evenodd" d="M6.37002 2.48493C6.60736 2.46524 7.82836 2.46094 12.0033 2.46094H15.258C17.6036 2.46501 17.7371 2.48434 18.1827 2.54887L18.2086 2.55261C19.1727 2.69166 19.9818 3.07621 20.6433 3.70809C21.014 4.06479 21.2694 4.41365 21.4993 4.88079C21.7796 5.45145 21.9172 5.99135 21.9803 6.79428C21.9938 6.96655 22 9.70819 22 12.4517C22 15.1947 21.9943 17.9414 21.9808 18.1137C21.9185 18.9038 21.7808 19.4484 21.5093 20.0083C20.9694 21.1219 19.9773 21.934 18.7791 22.2432C18.3445 22.3555 17.9515 22.4083 17.2747 22.4401C17.0332 22.4524 14.5076 22.4555 11.9819 22.4555C9.4562 22.4555 6.93206 22.4478 6.68442 22.437C6.09991 22.4093 5.64461 22.3509 5.23238 22.2448C4.04184 21.9371 3.03126 21.1127 2.50213 20.0144C2.22526 19.4407 2.09451 18.9162 2.02529 18.0825C2.0053 17.8456 2.00068 16.6258 2.00068 12.4543C2.00068 11.9432 2.00048 11.4794 2.0003 11.0578C1.99997 10.3201 1.9997 9.71153 2.00068 9.2049C2.00462 6.85667 2.02371 6.72492 2.08867 6.27679C2.08978 6.26911 2.09091 6.26133 2.09205 6.25346C2.23126 5.29025 2.6158 4.47994 3.25029 3.8213C3.59869 3.46013 3.9517 3.20249 4.39931 2.98022C4.98012 2.69105 5.51325 2.55615 6.37002 2.48493ZM8.95431 5.1205C9.74185 5.08466 9.9935 5.07589 11.9987 5.07589H11.9964C14.0021 5.07589 14.2529 5.08466 15.0404 5.1205C15.8264 5.15649 16.3632 5.28093 16.8339 5.46351C17.32 5.65193 17.7307 5.9042 18.1413 6.31489C18.552 6.72527 18.8043 7.13719 18.9935 7.62279C19.175 8.09225 19.2996 8.62876 19.3365 9.41477C19.3719 10.2023 19.3811 10.454 19.3811 12.4591C19.3811 14.4643 19.3719 14.7153 19.3365 15.5029C19.2996 16.2886 19.175 16.8252 18.9935 17.2948C18.8043 17.7803 18.552 18.1922 18.1413 18.6026C17.7311 19.0133 17.3198 19.2661 16.8344 19.4547C16.3646 19.6373 15.8275 19.7617 15.0415 19.7977C14.2539 19.8336 14.0031 19.8423 11.9977 19.8423C9.99273 19.8423 9.74124 19.8336 8.95369 19.7977C8.16784 19.7617 7.63117 19.6373 7.16141 19.4547C6.67612 19.2661 6.2642 19.0133 5.85397 18.6026C5.44343 18.1922 5.19117 17.7803 5.00244 17.2947C4.82001 16.8252 4.69557 16.2887 4.65942 15.5027C4.62374 14.7152 4.61482 14.4643 4.61482 12.4591C4.61482 10.454 4.62404 10.2022 4.65927 9.41461C4.69465 8.62891 4.81924 8.09225 5.00228 7.62264C5.19148 7.13719 5.44374 6.72527 5.85443 6.31489C6.26481 5.90435 6.67674 5.65209 7.16234 5.46351C7.63179 5.28093 8.1683 5.15649 8.95431 5.1205ZM11.7526 6.40634C11.6033 6.40627 11.4649 6.40621 11.3363 6.40641V6.40456C9.96027 6.4061 9.69632 6.41533 9.01522 6.44609C8.29535 6.47916 7.90451 6.59914 7.64425 6.70066C7.2997 6.83479 7.05359 6.99476 6.79518 7.25317C6.53676 7.51158 6.37648 7.75769 6.24266 8.10224C6.14161 8.3625 6.02132 8.7532 5.9884 9.47306C5.95303 10.2514 5.94595 10.4839 5.94595 12.4556C5.94595 14.4272 5.95303 14.661 5.9884 15.4393C6.02117 16.1592 6.14161 16.5499 6.24266 16.8098C6.37679 17.1545 6.53676 17.4 6.79518 17.6584C7.05359 17.9169 7.2997 18.0768 7.64425 18.2107C7.90466 18.3117 8.29535 18.432 9.01522 18.4652C9.79353 18.5006 10.0272 18.5083 11.9987 18.5083C13.97 18.5083 14.2038 18.5006 14.9821 18.4652C15.702 18.4323 16.093 18.3123 16.3529 18.2108C16.6976 18.077 16.943 17.917 17.2014 17.6586C17.4598 17.4003 17.6201 17.155 17.7539 16.8105C17.8549 16.5505 17.9752 16.1598 18.0081 15.4399C18.0435 14.6616 18.0512 14.4278 18.0512 12.4574C18.0512 10.487 18.0435 10.2532 18.0081 9.47491C17.9754 8.75504 17.8549 8.36435 17.7539 8.1044C17.6198 7.75985 17.4598 7.51374 17.2014 7.25533C16.9431 6.99691 16.6975 6.83694 16.3529 6.70312C16.0927 6.60206 15.702 6.48178 14.9821 6.44886C14.2036 6.41348 13.97 6.40641 11.9987 6.40641C11.9135 6.40641 11.8315 6.40637 11.7526 6.40634ZM15.0538 8.51801C15.0538 8.02872 15.4506 7.63233 15.9398 7.63233C16.4289 7.63233 16.8258 8.02887 16.8258 8.51801C16.8258 9.00715 16.4289 9.404 15.9398 9.404C15.4506 9.404 15.0538 9.00715 15.0538 8.51801ZM8.20706 12.4591C8.20706 10.3652 9.90474 8.66752 11.9987 8.66752C14.0926 8.66752 15.7896 10.3652 15.7896 12.4591C15.7896 14.553 14.0926 16.2499 11.9987 16.2499C9.90474 16.2499 8.20706 14.553 8.20706 12.4591ZM14.4597 12.4591C14.4597 11.0998 13.3578 9.99804 11.9987 9.99804C10.6394 9.99804 9.53758 11.0998 9.53758 12.4591C9.53758 13.8182 10.6394 14.9202 11.9987 14.9202C13.3578 14.9202 14.4597 13.8182 14.4597 12.4591Z" fill="#141414"/>
</g>
</g>
<defs>
<clipPath id="clip0_40000012_149">
<rect width="24" height="24" fill="white"/>
</clipPath>
<clipPath id="clip1_40000012_149">
<rect width="24" height="24" fill="white"/>
</clipPath>
</defs>
</svg>
