<svg width="24" height="24" viewBox="0 0 24 24" fill="none" xmlns="http://www.w3.org/2000/svg">
<g clip-path="url(#clip0_40000012_137)">
<g clip-path="url(#clip1_40000012_137)">
<path d="M20.5 2.46094H3.5C3.10218 2.46094 2.72064 2.61897 2.43934 2.90028C2.15804 3.18158 2 3.56311 2 3.96094V20.9609C2 21.3588 2.15804 21.7403 2.43934 22.0216C2.72064 22.3029 3.10218 22.4609 3.5 22.4609H20.5C20.8978 22.4609 21.2794 22.3029 21.5607 22.0216C21.842 21.7403 22 21.3588 22 20.9609V3.96094C22 3.56311 21.842 3.18158 21.5607 2.90028C21.2794 2.61897 20.8978 2.46094 20.5 2.46094ZM8 19.4609H5V10.4609H8V19.4609ZM6.5 8.71094C6.15618 8.70111 5.82288 8.59018 5.54175 8.39201C5.26062 8.19384 5.04411 7.91722 4.9193 7.59671C4.79448 7.2762 4.76687 6.92602 4.83994 6.58991C4.913 6.2538 5.0835 5.94668 5.33011 5.70691C5.57673 5.46715 5.88853 5.30537 6.22656 5.2418C6.5646 5.17823 6.91387 5.21568 7.23074 5.34948C7.5476 5.48328 7.81802 5.70748 8.00819 5.99409C8.19836 6.28069 8.29986 6.61698 8.3 6.96094C8.2921 7.43129 8.09834 7.87939 7.76105 8.2073C7.42376 8.53522 6.97039 8.71629 6.5 8.71094ZM19 19.4609H16V14.7209C16 13.3009 15.4 12.7909 14.62 12.7909C14.3913 12.8062 14.1679 12.8664 13.9625 12.9682C13.7572 13.0701 13.574 13.2115 13.4235 13.3843C13.273 13.5571 13.1581 13.758 13.0854 13.9754C13.0127 14.1927 12.9837 14.4223 13 14.6509C12.995 14.6975 12.995 14.7444 13 14.7909V19.4609H10V10.4609H12.9V11.7609C13.1925 11.3159 13.5944 10.9535 14.0672 10.7084C14.54 10.4632 15.0677 10.3436 15.6 10.3609C17.15 10.3609 18.96 11.2209 18.96 14.0209L19 19.4609Z" fill="#141414"/>
</g>
</g>
<defs>
<clipPath id="clip0_40000012_137">
<rect width="24" height="24" fill="white"/>
</clipPath>
<clipPath id="clip1_40000012_137">
<rect width="24" height="24" fill="white"/>
</clipPath>
</defs>
</svg>
