<svg width="24" height="24" viewBox="0 0 24 24" fill="none" xmlns="http://www.w3.org/2000/svg">
<g clip-path="url(#clip0_40000012_161)">
<g clip-path="url(#clip1_40000012_161)">
<path d="M11.6991 5.875C11.6991 5.875 5.43878 5.875 3.87371 6.28686C3.01704 6.5175 2.34172 7.19282 2.11108 8.04949C1.69922 9.61456 1.69922 12.8599 1.69922 12.8599C1.69922 12.8599 1.69922 16.122 2.11108 17.6706C2.34172 18.5273 3.01704 19.2026 3.87371 19.4332C5.43878 19.8451 11.6991 19.8451 11.6991 19.8451C11.6991 19.8451 17.9593 19.8451 19.5244 19.4332C20.3811 19.2026 21.0567 18.5273 21.2874 17.6706C21.6992 16.1055 21.6992 12.8599 21.6992 12.8599C21.6992 12.8599 21.6992 9.61456 21.2874 8.04949C21.0567 7.19282 20.3811 6.5175 19.5244 6.28686C17.9593 5.875 11.6991 5.875 11.6991 5.875ZM9.68931 9.86168L14.8952 12.8766L9.68931 15.8748V9.86168Z" fill="#141414"/>
</g>
</g>
<defs>
<clipPath id="clip0_40000012_161">
<rect width="24" height="24" fill="white"/>
</clipPath>
<clipPath id="clip1_40000012_161">
<rect width="24" height="24" fill="white"/>
</clipPath>
</defs>
</svg>
